<svg preserveAspectRatio="none" overflow="visible" style="display: block;" width="273" height="152" viewBox="0 0 273 152" fill="none" xmlns="http://www.w3.org/2000/svg">
<g id="Group 1">
<path id="Vector" d="M107.277 103.283C110.94 94.0807 111.945 81.0813 123.367 77.7829C130.419 75.6298 140.616 78.0701 142.281 86.3856C143.975 94.8454 141.571 104.329 142.359 113.083C142.591 120.242 145.188 127.767 145.913 134.781C146.607 141.469 143.123 148.161 136.191 149.484C131.759 150.331 122.594 150.489 120.631 145.463C120.262 144.521 123.151 140.763 123.831 139.8C125.362 139.936 129.376 140.789 130.294 140.192L130.322 139.791C128.84 138.484 124.7 138.845 124.053 137.165C125.191 135.063 129.902 136 130.506 134.054L130.15 133.639C129.326 133.339 128.516 133.572 127.638 133.72C126.641 134.01 125.512 134.434 124.506 134.298C122.35 132.192 125.256 120.95 122.353 117.047C121.307 116.461 120.65 116.568 119.791 117.479C117.722 119.675 115.789 122.404 113.874 124.728C110.033 123.572 104.944 123.49 101.108 124.688C97.0101 120.458 91.297 109.32 91.2221 123.729C91.2026 127.483 91.4624 130.774 90.7089 134.471C89.2826 134.183 85.648 133.217 84.5788 133.893L84.6841 134.451C85.6768 135.671 89.6753 135.358 90.6782 137.112C89.442 138.868 86.6106 138.21 84.4308 139.999L84.4581 140.315C86.0565 141.127 89.7785 139.022 91.3035 140.55C92.0691 141.317 94.1368 144.126 94.181 145.074C94.3328 148.343 87.9034 149.577 85.3682 149.893C81.5404 150.346 76.1841 149.377 73.2016 146.638C64.4634 138.611 72.012 124.131 72.3487 113.975C72.5427 108.129 72.6943 104.367 72.0284 98.6743C71.3882 93.2018 71.4048 86.067 75.0868 81.7726C77.9078 78.5424 81.4379 77.3968 85.5221 77.1091C100.901 75.5257 104.884 91.5096 107.277 103.283Z" fill="black"/>
<path id="Vector_2" d="M34.861 0.0832492C56.3828 -1.41521 59.8552 17.6122 63.9394 33.1952C66.7741 44.0109 75.6532 63.6978 59.8945 69.2887C53.8152 71.4453 43.2447 68.5776 40.8986 62.3186C37.0535 51.3244 52.2265 52.3001 55.8525 44.8025C56.6643 43.1238 57.3198 40.6847 56.699 38.8021C55.5812 35.5833 48.7337 37.9783 47.2858 37.3589C42.7088 35.4008 44.5424 32.5829 38.53 29.8078C31.1098 26.5589 27.5058 33.2276 20.7051 33.1198C18.3309 33.082 17.8274 35.4674 18.0876 37.2824C18.5176 40.2808 19.5694 42.6494 22.0834 44.566C23.3538 44.7499 24.6221 44.9479 25.8879 45.1599C28.7139 45.6552 29.8044 46.3473 31.3756 48.5263C31.8566 53.2891 30.5135 56.6864 27.5334 60.5008C24.2456 64.7971 19.2906 67.656 13.7775 68.437C7.90806 69.2297 0.882067 67.2384 0.0973926 60.7912C-0.108989 59.1444 0.0132996 57.475 0.457896 55.8714C2.18323 49.8725 5.60762 43.1693 7.99375 37.2695C13.8764 22.7232 14.676 2.36601 34.861 0.0832492Z" fill="black"/>
<path id="Vector_3" d="M99.4879 19.0589C103.166 18.6872 107.835 20.1101 110.698 22.3123C119.396 29.0017 115.872 40.1251 116.114 49.2689C116.228 53.5597 117.207 57.8368 116.96 62.122C115.946 73.1555 96.5514 72.2878 96.9051 60.6759C96.9051 54.7964 98.661 49.0277 98.2299 43.1268C98.0604 40.8041 96.4673 37.3811 93.5556 37.7626C92.5807 37.8864 91.6994 38.3856 91.1122 39.1465C89.4482 41.2789 89.3344 44.9588 89.7115 47.503C90.2972 52.7638 92.7453 57.8494 91.4826 63.3686C90.0148 69.7842 82.2265 70.9556 76.6577 69.3603C70.2486 67.5237 70.7674 61.7334 71.8039 56.6508C72.6335 51.8018 72.8923 44.9872 71.4321 40.1385C68.3697 29.9692 65.2095 17.2935 82.1139 19.9907C85.0957 20.4662 87.1927 23.0006 88.6918 25.592C89.2427 24.8172 89.8098 24.0539 90.3931 23.3018C92.8532 20.192 95.7521 19.5489 99.4879 19.0589Z" fill="black"/>
<path id="Vector_4" d="M168.236 99.1165C176.382 98.3672 186.392 101.201 190.83 108.502C195.335 115.917 192.052 123.972 193.142 132.086C193.887 137.646 199.47 144.956 192.652 148.815C188.056 151.369 182.927 147.538 178.429 146.287C175.034 146.998 172.038 149.323 168.416 149.812C163.057 150.536 159.238 149.142 155.005 146.107C150.626 141.983 149.679 138.435 150.086 132.581C150.78 122.542 160.644 118.72 169.365 120.287C171.432 120.659 174.486 122.489 176.245 120.991C176.712 119.911 176.425 118.412 175.801 117.505C170.102 109.186 162.219 116.668 155.411 116.372C150.27 116.148 149.745 109.043 152.978 105.378C157.398 100.368 161.946 99.8445 168.236 99.1165ZM171.851 137.926C173.323 137.582 174.812 136.713 175.632 135.422C176.23 134.499 176.43 133.374 176.185 132.302C175.69 130.163 173.736 129.064 171.684 128.809C164.735 129.651 165.43 137.38 171.851 137.926Z" fill="black"/>
<path id="Vector_5" d="M250.05 99.1197C251.919 98.9339 253.803 98.9645 255.667 99.2112C261.19 99.9311 265.367 102.042 268.75 106.356C271.36 109.719 272.455 113.942 271.792 118.083C271.387 120.637 270.149 122.817 268.16 124.56C260.529 131.244 248.05 126.821 245.87 128.383C245.883 129.115 246.028 129.134 246.294 129.724C248.49 134.617 254.773 134.518 259.385 133.388C262.32 132.677 266.272 129.918 269.352 130.959C273.725 132.439 273.414 137.131 272.259 140.526C269.983 145.033 266.345 147.319 261.504 148.78C247.003 153.153 230.345 145.492 228.353 130.274C226.313 114.693 233.055 101.658 250.05 99.1197ZM250.861 119.324C257.707 117.622 259.35 110.955 250.941 111.467C244.788 113.138 242.981 120.612 250.861 119.324Z" fill="black"/>
<path id="Vector_6" d="M213.07 86C215.099 86.0153 218.424 86.3323 220.057 87.4782C223.647 90.0017 221.869 94.7917 222.488 97.9216C224.153 100.762 233.648 97.6897 231.75 107.074C230.321 114.135 223.826 110.733 221.238 114.989C219.457 117.92 220.218 127.23 222.445 129.964C226.11 134.765 233.426 139.325 229.205 146.238C227.355 149.263 224.729 150.723 221.313 151.52C215.672 152.72 209.346 151.739 205.007 147.787C198.234 141.617 201.021 130.51 202.726 122.753C204.41 115.097 205.058 114.678 197.765 110.871C194.623 108.646 193.624 101.852 197.629 99.9867C198.863 99.4127 203.885 98.9591 204.003 97.8C204.803 89.9515 203.856 86.7268 213.07 86Z" fill="black"/>
<path id="Vector_7" d="M130.77 23.0759C133.093 22.7819 137.345 23.3477 139.252 24.6749C145.837 29.2569 141.762 40.9794 141.664 47.8894C141.537 56.9134 146.229 67.9732 133.52 69.9381C128.83 70.4093 122.204 68.1993 121.811 63.028C121.341 56.8426 122.553 50.7373 122.034 44.4214C121.695 40.2995 120.826 35.4367 121.031 31.4031C121.345 25.2066 125.346 23.8036 130.77 23.0759Z" fill="black"/>
<path id="Vector_8" d="M131.302 5.0648C135.639 4.57888 140.81 6.83791 141.824 11.4329C142.254 13.3852 141.89 15.4283 140.811 17.1119C139.192 19.6262 136.933 20.3621 134.196 20.955C129.36 21.3041 123.971 19.6745 123.1 14.213C122.781 12.3337 123.23 10.4051 124.347 8.86015C125.948 6.68506 128.678 5.43594 131.302 5.0648Z" fill="black"/>
<path id="Vector_9" d="M38.0367 37.2478C39.0072 36.714 40.2269 37.0713 40.7565 38.0441C41.2858 39.0172 40.9235 40.2353 39.9482 40.7607C38.979 41.2825 37.77 40.9228 37.2437 39.9559C36.7173 38.9887 37.0718 37.7783 38.0367 37.2478Z" fill="black"/>
</g>
</svg>
